# xmcd
#
# Track frame offsets:
#	150
#	35917
#	73297
#	121840
#	172055
#	217786
#	251140
#
# Disc length: 3824 seconds
#
# Revision: 1
# Processed by: cddbd v1.5PL3 Copyright (c) Steve Scherf et al.
# Submitted via: audiograbber 1.82.01
#
DISCID=6a0eee07
DTITLE=Jeremy J. Siegel - Stocks for the Long Run - CD3
DYEAR=2002
DGENRE=Speech
TTITLE0=The Right PE Ratio
TTITLE1=Chapter 6 - Spiders, Cubes and More
TTITLE2=Basics of Futures Markets
TTITLE3=Index Options
TTITLE4=Chapter 7 - Market Volatility
TTITLE5=The Stock Market Crash
TTITLE6=Distribution of Large Daily Changes
EXTD=
EXTT0=
EXTT1=
EXTT2=
EXTT3=
EXTT4=
EXTT5=
EXTT6=
PLAYORDER=
